<svg width="48" height="48" viewBox="0 0 48 48" fill="none" xmlns="http://www.w3.org/2000/svg">
<rect width="48" height="48" rx="24" fill="#F5F5F5" fill-opacity="0.55"/>
<path d="M29.8594 28.1406C30.3672 28.6094 30.3672 29.4297 29.8594 29.8984C29.625 30.1328 29.3125 30.25 29 30.25C28.6484 30.25 28.3359 30.1328 28.1016 29.8984L24 25.7969L19.8594 29.8984C19.625 30.1328 19.3125 30.25 19 30.25C18.6484 30.25 18.3359 30.1328 18.1016 29.8984C17.5938 29.4297 17.5938 28.6094 18.1016 28.1406L22.2031 24L18.1016 19.8984C17.5938 19.4297 17.5938 18.6094 18.1016 18.1406C18.5703 17.6328 19.3906 17.6328 19.8594 18.1406L24 22.2422L28.1016 18.1406C28.5703 17.6328 29.3906 17.6328 29.8594 18.1406C30.3672 18.6094 30.3672 19.4297 29.8594 19.8984L25.7578 24.0391L29.8594 28.1406Z" fill="white"/>
</svg>
